HIERARCHY
ROOT Hips
{
	OFFSET 0.000000 0.000000 0.000000
	CHANNELS 6 Xposition Yposition Zposition Zrotation Yrotation Xrotation 
	JOINT LeftUpLeg_virtual
	{
		OFFSET 0.000000 0.000000 0.000000
		CHANNELS 3 Zrotation Yrotation Xrotation
		JOINT LeftUpLeg
		{
			OFFSET 10.205400 -3.823500 0.155100
			CHANNELS 3 Zrotation Yrotation Xrotation
			JOINT LeftLeg
			{
				OFFSET 0.708757 -12.982077 0.567790
				CHANNELS 3 Zrotation Yrotation Xrotation
				JOINT LeftFoot
				{
					OFFSET -0.708756 -10.717838 -2.184338
					CHANNELS 3 Zrotation Yrotation Xrotation
					JOINT LeftToeBase
					{
						OFFSET 0.108149 -7.191104 7.560241
						CHANNELS 3 Zrotation Yrotation Xrotation
						End Site
						{
							OFFSET 0.000000 0.000000 0.000000
						}
					}
				}
			}
		}
	}
	JOINT RightUpLeg_virtual
	{
		OFFSET 0.000000 0.000000 0.000000
		CHANNELS 3 Zrotation Yrotation Xrotation
		JOINT RightUpLeg
		{
			OFFSET -10.205400 -3.823500 0.005500
			CHANNELS 3 Zrotation Yrotation Xrotation
			JOINT RightLeg
			{
				OFFSET -0.708756 -12.982134 0.610632
				CHANNELS 3 Zrotation Yrotation Xrotation
				JOINT RightFoot
				{
					OFFSET 0.708754 -10.717769 -1.945823
					CHANNELS 3 Zrotation Yrotation Xrotation
					JOINT RightToeBase
					{
						OFFSET -0.108140 -7.191069 7.372968
						CHANNELS 3 Zrotation Yrotation Xrotation
						End Site
						{
							OFFSET 0.000000 0.000000 0.000000
						}
					}
				}
			}
		}
	}
	JOINT Spine_virtual
	{
		OFFSET 0.000000 0.000000 0.000000
		CHANNELS 3 Zrotation Yrotation Xrotation
		JOINT Spine
		{
			OFFSET 0.000000 6.876099 0.125700
			CHANNELS 3 Zrotation Yrotation Xrotation
			JOINT Spine1
			{
				OFFSET 0.000000 8.022060 0.146608
				CHANNELS 3 Zrotation Yrotation Xrotation
				JOINT Spine2
				{
					OFFSET 0.000000 9.168068 0.167552
					CHANNELS 3 Zrotation Yrotation Xrotation
					JOINT Neck_virtual
					{
						OFFSET 0.000000 0.000000 0.000000
						CHANNELS 3 Zrotation Yrotation Xrotation
						JOINT Neck
						{
							OFFSET 0.000000 10.314075 0.188496
							CHANNELS 3 Zrotation Yrotation Xrotation
							JOINT Head
							{
								OFFSET 0.000000 7.643700 -2.377400
								CHANNELS 3 Zrotation Yrotation Xrotation
								End Site
								{
									OFFSET 0.000000 0.000000 0.000000
								}
							}
						}
					}
					JOINT LeftShoulder_virtual
					{
						OFFSET 0.000000 0.000000 0.000000
						CHANNELS 3 Zrotation Yrotation Xrotation
						JOINT LeftShoulder
						{
							OFFSET 4.392200 8.824978 0.174984
							CHANNELS 3 Zrotation Yrotation Xrotation
							JOINT LeftArm
							{
								OFFSET 8.771219 -2.981674 -0.026999
								CHANNELS 3 Zrotation Yrotation Xrotation
								JOINT LeftForeArm
								{
									OFFSET 8.512804 0.000000 -0.000000
									CHANNELS 3 Zrotation Yrotation Xrotation
									JOINT LeftHand
									{
										OFFSET 18.484802 0.000000 -0.000000
										CHANNELS 3 Zrotation Yrotation Xrotation
										End Site
										{
											OFFSET 0.000000 0.000000 0.000000
										}
									}
								}
							}
						}
					}
					JOINT RightShoulder_virtual
					{
						OFFSET 0.000000 0.000000 0.000000
						CHANNELS 3 Zrotation Yrotation Xrotation
						JOINT RightShoulder
						{
							OFFSET -4.392200 8.824993 0.141379
							CHANNELS 3 Zrotation Yrotation Xrotation
							JOINT RightArm
							{
								OFFSET -8.771282 -2.981682 -0.094208
								CHANNELS 3 Zrotation Yrotation Xrotation
								JOINT RightForeArm
								{
									OFFSET -8.494598 0.000000 0.000000
									CHANNELS 3 Zrotation Yrotation Xrotation
									JOINT RightHand
									{
										OFFSET -18.483803 0.000000 0.000001
										CHANNELS 3 Zrotation Yrotation Xrotation
										End Site
										{
											OFFSET 0.000000 0.000000 0.000000
										}
									}
								}
							}
						}
					}
				}
			}
		}
	}
}
MOTION
Frames: 11
Frame Time: 0.033333
4.787934 36.814487 -11.696347 179.650354 -36.099056 -179.475815 -1.382251 -7.822219 10.743943 12.637576 -12.179762 -28.546922 4.666004 -0.409624 22.141861 -15.628101 -0.098777 15.100203 0.000000 0.000000 0.000000 4.114781 -5.703179 7.907360 9.160967 6.442369 -18.151737 -6.066521 -1.898120 16.568565 1.117157 1.266844 10.307847 0.000000 0.000000 0.000000 2.875332 -3.107183 -7.626049 0.048201 4.572252 -5.105749 0.536800 -1.439401 7.911382 -0.012939 0.050397 -0.027023 0.061508 0.435831 10.256610 9.004552 -4.622567 11.414539 0.000000 0.000000 0.000000 1.379523 1.194326 7.796456 -11.679093 -8.912327 -0.248138 -47.881846 29.333784 11.209318 -1.490564 -48.945702 5.950149 0.000000 0.000000 0.000000 -2.344255 2.400384 7.218716 21.038540 1.680455 -1.868489 26.181225 1.021112 9.580535 -8.039813 62.210736 -10.734450 0.000000 0.000000 0.000000 
4.887988 36.817326 -11.270339 179.712987 -36.487929 -179.753544 -1.057359 -7.831725 10.769298 11.952376 -12.016126 -28.814447 5.106194 -0.497060 20.810246 -16.351434 0.223273 16.099610 0.000000 0.000000 0.000000 4.123788 -5.374993 7.857490 8.890792 6.149453 -18.415355 -5.804578 -1.911381 16.210129 0.755820 1.294455 10.706202 0.000000 0.000000 0.000000 3.140292 -2.939056 -7.217290 0.295068 4.677510 -4.770533 0.584185 -1.367684 8.064422 -0.014292 0.085749 -0.009090 0.097960 0.461141 10.298982 9.650716 -4.715207 11.554351 0.000000 0.000000 0.000000 1.426555 1.294015 7.777785 -11.540474 -9.518377 -0.274813 -48.357767 29.349613 10.447872 -1.479608 -48.149890 6.109249 0.000000 0.000000 0.000000 -2.299705 2.469600 7.177268 19.459904 0.881948 -2.776214 22.333102 4.263717 3.713814 -6.807509 59.755686 -9.571825 0.000000 0.000000 0.000000 
4.979071 36.822315 -10.822787 179.892949 -37.001583 -179.741195 -0.876262 -7.302422 9.974727 10.883158 -10.948079 -29.629395 5.789582 -0.813429 20.978858 -17.021060 0.487867 17.305461 0.000000 0.000000 0.000000 4.227565 -5.169471 7.643652 8.545230 5.955786 -18.788396 -5.624691 -1.891920 15.566491 0.530869 1.336217 11.387984 0.000000 0.000000 0.000000 3.334782 -2.743268 -7.004721 0.698084 4.671500 -4.610574 0.725288 -1.345392 8.176487 -0.008666 0.062438 -0.010228 0.188180 0.611770 10.509108 10.281042 -4.874614 11.831874 0.000000 0.000000 0.000000 1.484979 1.322547 7.932535 -11.423403 -10.119956 -0.285146 -48.948236 29.497476 9.631771 -1.438233 -47.814534 6.136387 0.000000 0.000000 0.000000 -2.298471 2.450881 7.216621 17.925415 -0.165795 -3.611712 18.993711 7.257196 -1.081100 -6.205089 59.632729 -9.362180 0.000000 0.000000 0.000000 
5.050325 36.839962 -10.377415 -179.957412 -37.359188 -179.816669 -0.890342 -6.498350 9.321808 9.912869 -9.656596 -30.503481 6.169567 -0.984208 21.204263 -17.266484 0.771739 18.702748 0.000000 0.000000 0.000000 4.310066 -4.846996 7.680047 8.183665 5.633011 -19.382156 -5.546092 -1.841995 15.069445 0.438266 1.351655 12.008779 0.000000 0.000000 0.000000 3.577830 -2.473516 -6.688648 0.907823 4.555940 -4.413554 0.881043 -1.316370 8.225774 -0.040608 0.066643 -0.018694 0.429141 0.575742 10.857166 10.938247 -5.316854 12.206624 0.000000 0.000000 0.000000 1.696289 1.289683 8.164012 -11.368017 -10.551845 -0.294004 -49.825383 29.881770 8.628861 -1.334925 -47.826887 6.033192 0.000000 0.000000 0.000000 -2.125368 2.460725 7.317009 16.495462 -1.479786 -4.280258 16.364179 9.850223 -4.961753 -5.929009 62.371457 -9.431094 0.000000 0.000000 0.000000 
5.101037 36.863941 -9.983605 -179.965676 -37.735945 179.976332 -0.929299 -5.995792 8.961671 8.715484 -8.431205 -30.944216 6.634794 -1.052563 21.130985 -17.250758 1.055017 19.933842 0.000000 0.000000 0.000000 4.198385 -4.714830 7.748218 7.809854 5.318269 -19.725315 -5.328745 -1.700318 14.725721 0.387702 1.188552 12.419052 0.000000 0.000000 0.000000 3.600862 -2.258394 -6.186597 1.035399 4.365677 -4.254919 1.083975 -1.315396 8.360447 -0.044532 0.031966 0.003988 0.701023 0.520002 11.137174 11.538883 -5.489366 12.706630 0.000000 0.000000 0.000000 1.951090 1.218145 8.324200 -11.346580 -10.869881 -0.364793 -50.747903 30.255487 7.662550 -1.384300 -48.125540 5.999624 0.000000 0.000000 0.000000 -1.923688 2.409263 7.328363 15.272738 -2.858742 -4.862737 14.838535 11.964751 -7.637589 -6.579956 67.656323 -10.553155 0.000000 0.000000 0.000000 
5.113381 36.889885 -9.676866 -179.863210 -37.902571 179.872267 -0.943875 -5.641622 8.638876 7.740384 -7.343291 -31.388571 6.885570 -1.023523 21.166797 -16.994240 1.236755 20.607184 0.000000 0.000000 0.000000 4.260561 -4.406368 7.746674 7.419535 5.144010 -20.006785 -5.117168 -1.506158 14.437849 0.442543 0.939846 12.683010 0.000000 0.000000 0.000000 3.635065 -1.924876 -5.901962 1.084065 4.082168 -4.297305 1.322309 -1.378770 8.671837 -0.052142 0.116479 -0.062550 1.018807 0.683678 11.350349 12.057372 -5.613286 13.185147 0.000000 0.000000 0.000000 2.189549 1.229803 8.423564 -11.375110 -11.085075 -0.467001 -51.583948 30.657874 6.988819 -1.576295 -48.509376 6.073370 0.000000 0.000000 0.000000 -1.724559 2.434987 7.246423 14.296217 -4.193527 -5.126462 14.371452 13.422480 -9.135887 -9.154419 74.591683 -13.710691 0.000000 0.000000 0.000000 
5.094753 36.919006 -9.444487 -179.796943 -38.159454 179.765811 -0.848924 -5.367388 8.587463 7.011131 -6.225746 -31.518106 7.402334 -0.398133 21.799039 -16.211973 1.512106 21.027675 0.000000 0.000000 0.000000 4.345723 -4.256848 7.750886 7.077532 4.997561 -20.256965 -5.281019 -1.368177 14.379884 0.829505 0.806441 12.774328 0.000000 0.000000 0.000000 3.610739 -1.892953 -5.718832 0.992445 3.968188 -4.403869 1.572147 -1.260991 8.779782 -0.044094 0.012699 0.007672 1.250461 0.603553 11.511989 12.427457 -5.604757 13.660209 0.000000 0.000000 0.000000 2.413215 1.223159 8.519462 -11.446326 -11.130160 -0.519385 -52.156988 30.712707 6.843289 -1.544535 -48.961060 5.895979 0.000000 0.000000 0.000000 -1.515801 2.418805 7.226708 13.548803 -5.433054 -5.460705 15.026976 14.123259 -9.294995 -16.139860 81.848493 -21.358440 0.000000 0.000000 0.000000 
5.040720 36.936306 -9.283702 -179.950800 -38.417567 179.788979 -0.757709 -5.197649 8.745622 6.184823 -5.022395 -31.331522 8.224872 0.444519 22.781819 -15.016804 1.929018 21.033863 0.000000 0.000000 0.000000 4.159396 -4.241537 7.756668 6.837681 4.713253 -20.405771 -5.081205 -1.205677 14.399482 1.110898 0.445790 13.028760 0.000000 0.000000 0.000000 3.399436 -1.790090 -5.616068 0.679230 3.706818 -4.611143 1.706853 -1.307136 8.794155 -0.036167 0.092700 -0.054158 1.413632 0.599628 11.657146 12.586103 -5.590109 14.025228 0.000000 0.000000 0.000000 2.592432 1.283277 8.560344 -11.483394 -11.079195 -0.631911 -52.378477 30.620138 7.023280 -1.515163 -49.476511 5.717267 0.000000 0.000000 0.000000 -1.282858 2.584644 7.224071 12.957097 -6.512255 -5.523227 16.464374 13.496932 -7.908138 -60.962396 87.520377 -66.851808 0.000000 0.000000 0.000000 
4.938607 36.954849 -9.188110 179.928274 -38.607969 179.854303 -0.738287 -5.174572 9.016865 5.817438 -3.605933 -30.929248 9.734873 1.738451 24.533701 -12.172055 3.268287 21.719672 0.000000 0.000000 0.000000 4.076308 -4.287120 7.811255 6.539551 4.611077 -20.573467 -5.223396 -1.103948 14.584508 1.655255 0.205261 13.202149 0.000000 0.000000 0.000000 3.211729 -1.969866 -5.727479 0.326022 3.735191 -4.929111 1.834336 -1.132441 8.820356 -0.009063 0.015801 -0.031478 1.536638 0.720075 11.634578 12.653008 -5.437616 14.229095 0.000000 0.000000 0.000000 2.685184 1.362350 8.530811 -11.439678 -10.919727 -0.731655 -52.167332 30.374903 7.397173 -1.558201 -49.848011 5.608381 0.000000 0.000000 0.000000 -1.087457 2.621747 7.210254 12.470876 -7.114235 -5.406283 18.130505 11.579180 -4.944291 -152.517837 85.517076 -159.035791 0.000000 0.000000 0.000000 
4.775317 36.940990 -9.134666 179.945650 -39.039900 179.856571 -0.548978 -5.448258 9.311134 5.455662 -2.499513 -30.369811 10.844342 2.714547 26.250794 -10.246163 4.034725 20.734026 0.000000 0.000000 0.000000 3.988315 -4.555929 7.861662 6.253376 4.524515 -20.755102 -5.165926 -1.056532 14.865055 2.215614 -0.080615 13.236669 0.000000 0.000000 0.000000 3.074118 -2.209424 -5.881691 -0.029021 3.811435 -5.264458 1.900618 -0.972734 8.763410 0.031739 -0.056687 -0.002592 1.518451 0.874277 11.521025 12.563893 -5.252300 14.339349 0.000000 0.000000 0.000000 2.663876 1.354263 8.393390 -11.325055 -10.737280 -0.842281 -51.742962 30.001661 7.952345 -1.453920 -50.286960 5.346523 0.000000 0.000000 0.000000 -1.048870 2.654161 7.098950 11.902711 -7.640075 -5.108886 19.404139 8.306287 -0.841292 -164.786387 82.611643 -171.815826 0.000000 0.000000 0.000000 
4.534091 36.907146 -9.089017 179.901582 -39.395712 179.922646 -0.677570 -5.685413 9.640920 5.286901 -1.194947 -29.626372 11.553831 2.672397 26.752505 -9.661671 4.008667 20.074039 0.000000 0.000000 0.000000 3.738457 -4.707463 7.974803 5.954753 4.264313 -20.936908 -5.044891 -0.921979 15.406161 2.788805 -0.357376 12.870778 0.000000 0.000000 0.000000 2.868025 -2.302469 -6.058405 -0.370217 3.726728 -5.627570 1.848602 -1.028743 8.616140 -0.007550 0.025656 0.012620 1.434046 0.821421 11.327886 12.362502 -5.009660 14.441648 0.000000 0.000000 0.000000 2.684220 1.481755 8.216560 -11.198829 -10.337581 -0.911787 -51.272751 29.661736 8.455089 -1.374798 -50.765603 5.107435 0.000000 0.000000 0.000000 -1.032001 2.800446 7.040717 11.251427 -7.752949 -4.554359 19.871530 4.141726 3.749142 -167.060280 81.434201 -174.382762 0.000000 0.000000 0.000000 
